<?xml version="1.0" encoding="UTF-8"?>
<svg width="200" height="50" viewBox="0 0 200 50" fill="none" xmlns="http://www.w3.org/2000/svg">
  <!-- H letter with hook shape -->
  <path d="M20 5 L20 45 L35 45 L35 30 L40 30 C45 30 50 27 50 22 L50 15 C50 10 45 5 40 5 L20 5 Z" fill="#FF0000"/>
  <path d="M35 5 L35 20 L20 20 L20 5" fill="#FF0000"/>
  
  <!-- Text part -->
  <path d="M65 15 L65 45 L70 45 L70 32.5 L85 32.5 L85 45 L90 45 L90 15 L85 15 L85 27.5 L70 27.5 L70 15 L65 15 Z" fill="#333333"/>
  <path d="M97.5 15 C95 15 92.5 17.5 92.5 20 L92.5 40 C92.5 42.5 95 45 97.5 45 L107.5 45 C110 45 112.5 42.5 112.5 40 L112.5 20 C112.5 17.5 110 15 107.5 15 L97.5 15 Z M97.5 20 L107.5 20 L107.5 40 L97.5 40 L97.5 20 Z" fill="#333333"/>
  <path d="M120 15 C117.5 15 115 17.5 115 20 L115 40 C115 42.5 117.5 45 120 45 L130 45 C132.5 45 135 42.5 135 40 L135 20 C135 17.5 132.5 15 130 15 L120 15 Z M120 20 L130 20 L130 40 L120 40 L120 20 Z" fill="#333333"/>
  <path d="M140 15 L140 45 L145 45 L145 35 L147.5 35 L155 45 L161.25 45 L152.5 33.75 C156.25 32.5 158.75 30 158.75 25 C158.75 18.75 155 15 150 15 L140 15 Z M145 20 L150 20 C152.5 20 153.75 22.5 153.75 25 C153.75 27.5 152.5 30 150 30 L145 30 L145 20 Z" fill="#333333"/>
  
  <!-- YouTube-style play button -->
  <rect x="165" y="15" width="25" height="30" rx="5" fill="#FF0000"/>
  <path d="M175 22.5 L175 37.5 L185 30 L175 22.5 Z" fill="white"/>
</svg> 